<?xml version="1.0" encoding="utf-8"?>
<!-- Generator: Adobe Illustrator 26.5.3, SVG Export Plug-In . SVG Version: 6.00 Build 0)  -->
<svg version="1.1" id="Слой_1" xmlns="http://www.w3.org/2000/svg" xmlns:xlink="http://www.w3.org/1999/xlink" x="0px" y="0px"
	 viewBox="0 0 300 300" style="enable-background:new 0 0 300 300;" xml:space="preserve">
<style type="text/css">
	.st0{fill:#B8B9F5;}
	.st1{fill-rule:evenodd;clip-rule:evenodd;fill:#8485F3;}
	.st2{fill-rule:evenodd;clip-rule:evenodd;}
</style>
<g>
	<path class="st0" d="M85.5,154.1l-18.5-18c-0.1-0.1-0.2-0.2-0.3-0.3c-1.4-1.1-3.2-1.3-4.8-0.6c-0.5,0.2-0.9,0.5-1.3,0.9l-4.3,4
		l-4.3,4.2l10.5,10.2c0.3,0.3,0.8,0.8,1.4,1.4c1.5,1.5,3.7,3.9,5.9,5.9c0.9,0.8,1.7,1.5,2.3,2l0.5,0.4c0.3,0.2,0.7,0.4,1.1,0.5
		c0.7,0.2,1.5,0.3,2.3,0.3c1.4,0,2.8-0.2,4.1-0.6c0,0,0.9-0.3,1-0.3c0.4-0.2,0.7-0.5,1-0.8c1.4-1.3,3.1-2.9,3.1-2.9
		C86.8,158.8,87.5,156,85.5,154.1z"/>
	<path class="st1" d="M76,165.1c1.4,0,2.8-0.2,4.1-0.6l1.1-0.3l-0.9,0.6l-0.2,0.1l-0.2,0.1l-0.4,0.2l-0.4,0.2
		c-1.1,0.6-2.3,0.9-3.6,0.9h-0.7H61H26.6h-0.3c-0.8,0-1.5-0.2-2.1-0.7l-5.3-5.1c-1.7-1.6-2.4-4.2-0.6-6.1v-0.1c0,0,0,0,0-0.1
		c0,0,0.1-0.1,0.1-0.1L37.1,136c0.2-0.2,0.4-0.4,0.7-0.5c1.8-1,4-0.8,5.7,0.4l0.1,0.1l4.4,4.4l0.8,0.8l3.2,3.2l10.5,10.2
		c0.3,0.3,0.7,0.7,1.3,1.4l0.1,0.1c0.4,0.4,0.8,0.8,1.3,1.3c1.3,1.4,3,3.1,4.6,4.5c0.9,0.8,1.7,1.5,2.3,2l0.5,0.4
		c0.3,0.2,0.7,0.4,1.1,0.6C74.4,165,75.2,165.1,76,165.1z M37.8,147.4c-0.1,0.1-0.2,0.3-0.2,0.5c0,0.2,0.1,0.4,0.2,0.5l2.8,2.7
		c0.1,0.1,0.3,0.2,0.5,0.2c0.2,0,0.4-0.1,0.5-0.3l0.4-0.4l0.2-0.2l0.8-0.8l0.2-0.2l0.7-0.7c0.1-0.1,0.2-0.3,0.2-0.5
		c0-0.2-0.1-0.4-0.2-0.5l-2.8-2.7c-0.1-0.1-0.2-0.2-0.4-0.2h-0.1c-0.2,0-0.4,0.1-0.5,0.2L37.8,147.4z"/>
	<path class="st2" d="M106.2,134.9h-3.9v41.7h3.9v-16.1c3.5,4.1,7.6,6.1,12.3,6.1c4.2,0,8.3-1.7,11.1-4.7c3-3,4.7-7,4.6-11.2
		c0.1-4.2-1.6-8.3-4.7-11.2c-2.9-3-6.9-4.7-11.2-4.7c-5,0-9.1,2.1-12.2,6.3V134.9z M126.8,142.2c2.3,2.3,3.6,5.4,3.6,8.6h0
		c0.1,3.3-1.2,6.4-3.6,8.7c-2.3,2.3-5.4,3.6-8.6,3.6c-3.2,0-6.4-1.3-8.6-3.5c-2.4-2.3-3.7-5.5-3.6-8.7c-0.1-3.3,1.2-6.4,3.5-8.7
		c2.3-2.3,5.4-3.5,8.7-3.5C121.4,138.6,124.5,139.9,126.8,142.2z"/>
	<path d="M140.2,134.9h4.1v5.1c0.8-1.5,1.9-2.8,3.1-3.9c0.9-0.8,2.2-1.2,3.4-1.2c1.3,0,2.6,0.4,3.8,1l-2.1,3.3
		c-0.5-0.3-1.2-0.5-1.8-0.5c-1.3,0.1-2.6,0.7-3.4,1.8c-1.1,1.4-1.9,3-2.3,4.7c-0.5,1.9-0.8,5.4-0.8,10.4v11h-4.1L140.2,134.9z"/>
	<path class="st2" d="M162.3,139.5c-3,3-4.7,7-4.6,11.2c-0.1,4.2,1.6,8.2,4.6,11.1c3,3,7.1,4.6,11.3,4.6c4.3,0,8.3-1.7,11.3-4.6
		c6.1-6.2,6.1-16.1-0.1-22.3c-3-3-7-4.7-11.3-4.7C169.3,134.9,165.3,136.6,162.3,139.5z M182,142.3c2.3,2.3,3.6,5.4,3.6,8.6
		c0.1,3.2-1.2,6.3-3.5,8.5c-2.2,2.3-5.3,3.6-8.5,3.5c-3.2,0.1-6.3-1.2-8.4-3.5c-2.2-2.3-3.5-5.3-3.4-8.5c0-3.2,1.2-6.3,3.5-8.6
		c2.2-2.3,5.2-3.6,8.4-3.6C176.8,138.6,179.8,140,182,142.3z"/>
	<path d="M209.7,124.1v3.8c-1.3-0.6-2.6-0.9-4-1c-0.9-0.1-1.8,0.3-2.3,1.1c-0.4,1.1-0.6,2.4-0.5,3.6v3.3h6.4v3.3h-6.4v28.3h-4v-28.3
		h-4v-3.3h4v-3.9c0-2.6,0.5-4.6,1.5-5.8c1.2-1.3,2.9-2,4.7-1.9C206.7,123.4,208.2,123.7,209.7,124.1z"/>
	<path class="st2" d="M244.2,157.5l-3.3-1.7c-2.6,4.7-6.4,7.1-11.6,7.1c-3,0.1-6-1.1-8.1-3.3c-2.3-2.3-3.5-5.4-3.5-8.6h27.5
		c-0.1-5-1.7-8.9-4.7-11.8c-2.9-2.9-7-4.5-11.1-4.4c-4.2-0.1-8.3,1.6-11.1,4.7c-6,6.3-6,16,0,22.3c2.9,3.1,7.1,4.7,11.4,4.6
		C236.1,166.4,240.9,163.4,244.2,157.5z M236.9,141c2.2,1.6,3.6,4,4,6.7h-22.7c1.8-6.1,5.5-9.1,11.3-9.1
		C232.1,138.5,234.8,139.4,236.9,141z"/>
	<path class="st2" d="M281.7,157.3l-3.3-1.7c-2.6,4.7-6.4,7.1-11.5,7.1c-3,0.1-5.9-1.1-8-3.3c-2.3-2.3-3.5-5.4-3.5-8.6h27.3
		c-0.1-4.9-1.7-8.8-4.7-11.7c-2.9-2.8-6.9-4.4-11.1-4.3c-4.2-0.1-8.3,1.6-11.1,4.6c-6,6.2-6,15.9,0,22.2c2.9,3,7,4.7,11.3,4.6
		C273.6,166.3,278.4,163.3,281.7,157.3z M274.4,141c2.2,1.6,3.6,4,4,6.6h-22.6c1.8-6,5.5-9,11.2-9
		C269.7,138.5,272.3,139.4,274.4,141z"/>
</g>
</svg>
