<?xml version="1.0" encoding="UTF-8"?>
<svg version="1.1" xmlns="http://www.w3.org/2000/svg" width="183" height="183">
<path d="M0 0 C60.39 0 120.78 0 183 0 C183 60.39 183 120.78 183 183 C122.61 183 62.22 183 0 183 C0 122.61 0 62.22 0 0 Z M14 14 C14 65.15 14 116.3 14 169 C65.15 169 116.3 169 169 169 C169 117.85 169 66.7 169 14 C117.85 14 66.7 14 14 14 Z " fill="#1B1464" transform="translate(0,0)"/>
<path d="M0 0 C16.17 0 32.34 0 49 0 C49 4.62 49 9.24 49 14 C32.83 14 16.66 14 0 14 C0 9.38 0 4.76 0 0 Z " fill="#1B1464" transform="translate(100,98)"/>
<path d="M0 0 C16.17 0 32.34 0 49 0 C49 4.62 49 9.24 49 14 C32.83 14 16.66 14 0 14 C0 9.38 0 4.76 0 0 Z " fill="#1B1464" transform="translate(34,98)"/>
<path d="M0 0 C16.17 0 32.34 0 49 0 C49 4.62 49 9.24 49 14 C32.83 14 16.66 14 0 14 C0 9.38 0 4.76 0 0 Z " fill="#1B1464" transform="translate(100,70)"/>
<path d="M0 0 C16.17 0 32.34 0 49 0 C49 4.62 49 9.24 49 14 C32.83 14 16.66 14 0 14 C0 9.38 0 4.76 0 0 Z " fill="#1B1464" transform="translate(100,42)"/>
<path d="M0 0 C16.17 0 32.34 0 49 0 C49 4.29 49 8.58 49 13 C32.83 13 16.66 13 0 13 C0 8.71 0 4.42 0 0 Z " fill="#1B1464" transform="translate(100,127)"/>
<path d="M0 0 C16.17 0 32.34 0 49 0 C49 4.29 49 8.58 49 13 C32.83 13 16.66 13 0 13 C0 8.71 0 4.42 0 0 Z " fill="#1B1464" transform="translate(34,127)"/>
</svg>
