<?xml version="1.0" encoding="UTF-8"?>
<svg xmlns="http://www.w3.org/2000/svg" viewBox="0 0 512 512">
  <path fill="#ffffff" d="M0 0h512v512H0z"/>
  <path fill="#01411c" d="M0 0h128v512H0z"/>
  <g fill="#ffffff">
    <path d="M340.1 170.7c-39.1 0-70.7 31.6-70.7 70.7 0 39 31.6 70.7 70.7 70.7 13 0 25.2-3.5 35.6-9.7-29.1-3.7-51.7-28.6-51.7-58.7 0-30.1 22.6-55 51.7-58.7-10.4-6.1-22.6-9.6-35.6-9.6z"/>
    <path d="M388.6 297.9l7.6 20.4 21.6-.2-17 13.2 6.4 20.8-17.6-12.4-17.7 12.3 6.5-20.7-16.9-13.3 21.6.3z"/>
  </g>
</svg> 